<svg xmlns="http://www.w3.org/2000/svg" width="110" height="33" viewBox="0 0 110 33">
  <g fill="none" fill-rule="evenodd">
    <path fill="#A4C658" d="M2.94185839 23.1736117C3.26469006 23.246326 3.73067451 23.3188534 4.3401807 23.3188534 7.2084017 23.3188534 9.07270846 21.6114685 9.07270846 18.4507316 9.07270846 15.0722255 6.74241725 13.4736317 4.16087077 13.437368L2.94185839 13.437368 2.94185839 23.1736117 2.94185839 23.1736117zM2.94185839 11.2938467L4.19665896 11.2938467C6.45537378 11.2938467 8.39162588 9.55001114 8.39162588 6.97061502 8.39162588 4.71833994 7.35173896 2.97450442 4.41194157 2.97450442 3.76646271 2.97450442 3.26469006 3.04721875 2.94185839 3.15619679L2.94185839 11.2938467 2.94185839 11.2938467zM.181186455 1.2669326C1.32843796.976262187 2.69097207.794756742 4.23263163.794756742 6.41958558.794756742 8.28389234 1.2669326 9.57466558 2.50214164 10.614368 3.4831309 11.1521133 4.93629602 11.1521133 6.68013154 11.1521133 9.18681333 9.78976371 11.1848686 7.42349983 12.1294073L7.42349983 12.2021216C10.2201444 12.9649679 11.9051413 15.2536936 11.9051413 18.4506942 11.9051413 20.4852001 11.2598469 22.1200576 10.1841718 23.318816 8.82182213 24.8811461 6.56292284 25.5350143 3.80243538 25.5350143 2.00970502 25.5350143.934214377 25.4260363.181186455 25.2806076L.181186455 1.2669326.181186455 1.2669326zM13.8764252 12.3474381C13.8764252 10.8578224 13.7688761 9.11417376 13.7330879 7.80625039L16.2069009 7.80625039 16.3502382 10.5673389 16.421999 10.5673389C16.9955325 8.89621769 18.4656157 7.51557998 20.0790361 7.51557998 20.2941343 7.51557998 20.4732597 7.55203061 20.6525697 7.55203061L20.6525697 10.4219102C20.4732597 10.3856465 20.2941343 10.3856465 20.0790361 10.3856465 18.3222784 10.3856465 17.0315052 12.020504 16.7446462 14.054823 16.6728853 14.5271858 16.6370971 15.072076 16.6370971 15.6534168L16.6370971 25.3896604 13.8764252 25.3896604 13.8764252 12.3474381 13.8764252 12.3474381zM21.7277098 7.806213L24.4883817 7.806213 24.4883817 25.3896231 21.7277098 25.3896231 21.7277098 7.806213 21.7277098 7.806213zM24.7034799 3.26502528C24.7394525 4.35499258 24.0581855 5.08157514 23.018483 5.08157514 22.1221178 5.08157514 21.4408508 4.35499258 21.4408508 3.26502528 21.4408508 2.17524491 22.157906 1.44866235 23.0542712 1.44866235 24.0581855 1.44866235 24.7034799 2.17524491 24.7034799 3.26502528L24.7034799 3.26502528zM34.9931397 13.8732428C34.9931397 13.4373306 34.9573515 12.9649679 34.8498024 12.60177 34.5271552 11.4028247 33.9174646 9.91339588 32.3400168 9.91339588 30.3321883 9.91339588 29.2566977 12.6380337 29.2566977 16.5253532 29.2566977 21.0300903 30.65502 23.0645963 32.3400168 23.0645963 33.1646211 23.0645963 34.2402962 22.6649478 34.8138298 20.5579145 34.9573515 20.0128374 34.9931397 19.4679472 34.9931397 18.9593207L34.9931397 13.8732428 34.9931397 13.8732428zM37.8613607 7.80617562C37.8255725 9.04138466 37.7180234 10.6035278 37.7180234 13.2920889L37.7180234 23.1373106C37.7180234 27.7510257 37.1443054 29.4948612 35.9970539 30.7665209 34.9573515 31.9652793 33.3081429 32.6554113 31.3720752 32.6554113 29.9019921 32.6554113 28.4678816 32.2922134 27.5717009 31.783587L28.2169952 29.6038393C28.8980778 29.967224 30.0455138 30.3666855 31.4436516 30.3666855 33.6307901 30.3666855 34.9931397 28.9862348 34.9931397 24.9901242L34.9931397 23.209838 34.9213788 23.209838C34.3120571 24.5902888 33.0570721 25.353322 31.5871734 25.353322 28.5038542 25.353322 26.4960257 21.8293872 26.4960257 16.670595 26.4960257 10.2040663 29.4002194 7.51569214 31.9456088 7.51569214 33.8099155 7.51569214 34.6704925 8.75090118 35.1724496 9.80441785L35.2442105 9.80441785 35.3875477 7.80617562 37.8613607 7.80617562 37.8613607 7.80617562zM40.4783264.249717014L43.2389984.249717014 43.2389984 9.69547719 43.3107592 9.69547719C43.6691946 9.07787267 44.2069399 8.53279556 44.7446852 8.16959774 45.3901641 7.7699493 46.0714312 7.51572952 47.0751609 7.51572952 49.2622994 7.51572952 51.1266061 9.29582875 51.1266061 13.7278515L51.1266061 25.3896231 48.3659342 25.3896231 48.3659342 14.0549725C48.3659342 11.9114886 47.8997652 9.87698264 46.035643 9.87698264 44.7446852 9.87698264 43.7767437 10.8215213 43.3465474 12.6743348 43.2747865 13.0739833 43.2389984 13.5826098 43.2389984 14.0185219L43.2389984 25.3896231 40.4783264 25.3896231 40.4783264.249717014 40.4783264.249717014zM57.0785152 3.15610332L57.0785152 7.80626908 60.4127206 7.80626908 60.4127206 9.94975305 57.0785152 9.94975305 57.0785152 20.3763156C57.0785152 22.6650413 57.9031195 23.2824589 58.9070338 23.2824589 59.33723 23.2824589 59.6958499 23.2461952 60.0184971 23.1734808L60.1260461 25.3169648C59.624089 25.4986572 58.9787946 25.6076352 58.082245 25.6076352 57.0067543 25.6076352 56.0386283 25.3169648 55.3575457 24.5541185 54.6764631 23.7548217 54.3178433 22.5560632 54.3178433 20.1219089L54.3178433 9.94975305 52.2024657 9.94975305 52.2024657 7.80626908 54.3178433 7.80626908 54.3178433 3.95540022 57.0785152 3.15610332 57.0785152 3.15610332z"/>
    <polygon fill="#FFFFFF" points="61.99 .904 64.751 .904 64.751 23.028 71.563 23.028 71.563 25.39 61.99 25.39"/>
    <path fill="#FFFFFF" d="M74.4673356 16.597918C74.4673356 19.5042483 74.9692927 23.4640952 77.4788939 23.4640952 79.8451577 23.4640952 80.3113267 19.3227428 80.3113267 16.597918 80.3113267 13.9095439 79.8451577 9.7680046 77.4073175 9.7680046 74.9333201 9.7680046 74.4673356 13.9095439 74.4673356 16.597918M83.1077868 16.597918C83.1077868 23.3915678 79.9886795 25.6802935 77.3355566 25.6802935 74.2164493 25.6802935 71.7066637 22.8102269 71.7066637 16.6341817 71.7066637 10.2039168 74.5390965 7.51572952 77.5148665 7.51572952 80.5980012 7.51572952 83.1077868 10.4583235 83.1077868 16.597918M93.5767566 24.9537109C92.9670659 25.3169087 91.9275479 25.6075791 90.7083511 25.6075791 86.9081612 25.6075791 84.3625874 22.5197435 84.3625874 16.7068961 84.3625874 11.6570819 86.8721885 7.55199322 91.2104927 7.55199322 92.1426461 7.55199322 93.1463758 7.806213 93.6485174 8.09688341L93.1105876 10.3856091C92.7519678 10.2039168 92.035097 9.91343327 91.1385474 9.91343327 88.3778754 9.91343327 87.1232593 13.2556757 87.1232593 16.7068961 87.1232593 20.8121716 88.6647344 23.2825897 91.2104927 23.2825897 91.9633361 23.2825897 92.5728423 23.1008974 93.2181367 22.8102269L93.5767566 24.9537109 93.5767566 24.9537109zM101.428023 16.3072476C99.9939122 16.3072476 96.6595223 16.5614674 96.6595223 20.3762595 96.6595223 22.6649852 97.8067738 23.5003589 98.7747154 23.5003589 99.9939122 23.5003589 101.03343 22.5922709 101.356262 20.8484353 101.428023 20.5215012 101.428023 20.1581165 101.428023 19.8674461L101.428023 16.3072476 101.428023 16.3072476zM101.822431 25.3896231L101.643121 23.5368095 101.535572 23.5368095C100.782544 24.8809966 99.5637159 25.6802935 98.0936328 25.6802935 95.7631571 25.6802935 93.9704267 23.6822382 93.9704267 20.666743 93.9704267 16.2709839 97.4483384 14.3091923 101.356262 14.2727417L101.356262 13.7278515C101.356262 11.3664115 100.782544 9.7317409 98.5955899 9.7317409 97.5199148 9.7317409 96.5519732 10.0949387 95.7273689 10.6398289L95.1178627 8.67822423C95.834918 8.13314711 97.4483384 7.51554259 99.1693079 7.51554259 102.646851 7.51554259 104.152906 9.84071894 104.152906 13.8005658L104.152906 21.3933255C104.152906 22.7375126 104.152906 24.2633921 104.332032 25.3896231L101.822431 25.3896231 101.822431 25.3896231z"/>
    <rect width="2.761" height="25.14" x="106.95" y=".25" fill="#FFFFFF"/>
  </g>
</svg>
